<svg width="15" height="15" viewBox="0 0 15 15" fill="none" xmlns="http://www.w3.org/2000/svg">
<path d="M15 7.50005C14.9999 7.6393 14.9611 7.77579 14.8878 7.89422C14.8146 8.01265 14.7098 8.10835 14.5852 8.1706L1.08502 14.9211C0.958327 14.9843 0.816325 15.0104 0.67544 14.9963C0.534556 14.9822 0.400544 14.9284 0.288903 14.8414C0.177262 14.7543 0.0925506 14.6373 0.0445674 14.5041C-0.00341574 14.3709 -0.0127102 14.2268 0.0177568 14.0885L1.48178 7.50005L0.0177574 0.912296C-0.0128889 0.773961 -0.00372699 0.629775 0.0441808 0.496432C0.0920887 0.363089 0.176784 0.246044 0.288459 0.158849C0.400134 0.0716536 0.534222 0.0178755 0.675195 0.00374116C0.816169 -0.0103932 0.958263 0.0156942 1.08502 0.078983L14.5852 6.8295C14.7098 6.89174 14.8146 6.98744 14.8878 7.10587C14.9611 7.2243 14.9999 7.36079 15 7.50005ZM2.8513 8.2501L1.82379 12.875L11.0729 8.2501L2.8513 8.2501ZM11.0729 6.74999L1.82379 2.12514L2.8513 6.74999L11.0729 6.74999Z" fill="#00A389"/>
</svg>
