<svg width="11" height="15" viewBox="0 0 11 15" fill="none" xmlns="http://www.w3.org/2000/svg">
<path d="M2.2 1.64969e-07C1.61652 1.64969e-07 1.05694 0.225765 0.644365 0.627629C0.231785 1.02949 0 1.57454 0 2.14286L0 12.8571C0 13.4255 0.231785 13.9705 0.644365 14.3724C1.05694 14.7742 1.61652 15 2.2 15L8.8 15C9.38348 15 9.94306 14.7742 10.3556 14.3724C10.7682 13.9705 11 13.4255 11 12.8571L11 4.72929C10.9996 4.30319 10.8255 3.89468 10.516 3.59357L7.3117 0.470357C7.15841 0.321143 6.97644 0.202804 6.77619 0.122099C6.57593 0.041394 6.36132 -9.5474e-05 6.1446 1.64969e-07L2.2 1.64969e-07ZM1.1 2.14286C1.1 1.8587 1.21589 1.58617 1.42218 1.38524C1.62847 1.18431 1.90826 1.07143 2.2 1.07143L5.5 1.07143L5.5 3.75C5.5 4.17624 5.67384 4.58502 5.98327 4.88642C6.29271 5.18782 6.71239 5.35714 7.15 5.35714L9.9 5.35714L9.9 12.8571C9.9 13.1413 9.78411 13.4138 9.57782 13.6148C9.37153 13.8157 9.09174 13.9286 8.8 13.9286L2.2 13.9286C1.90826 13.9286 1.62847 13.8157 1.42218 13.6148C1.21589 13.4138 1.1 13.1413 1.1 12.8571L1.1 2.14286ZM9.6723 4.28571L7.15 4.28571C7.00413 4.28571 6.86424 4.22927 6.76109 4.12881C6.65795 4.02834 6.6 3.89208 6.6 3.75L6.6 1.29321L9.6723 4.28571Z" fill="#939393"/>
</svg>
