<svg width="17" height="15" viewBox="0 0 17 15" fill="none" xmlns="http://www.w3.org/2000/svg">
<path d="M4.92029 5.8825C5.50436 5.82 5.95607 5.92875 6.11757 6.01125C6.18914 6.05098 6.26773 6.0755 6.34868 6.08337C6.42963 6.09124 6.51129 6.08229 6.58882 6.05705C6.66634 6.03181 6.73816 5.9908 6.79999 5.93645C6.86183 5.88209 6.91243 5.81551 6.94879 5.74065C6.98515 5.66578 7.00654 5.58416 7.01168 5.50062C7.01681 5.41709 7.0056 5.33334 6.9787 5.25436C6.9518 5.17537 6.90976 5.10275 6.85507 5.0408C6.80039 4.97886 6.73417 4.92885 6.66036 4.89375C6.23414 4.67375 5.5335 4.56 4.794 4.64C3.62829 4.765 2.42857 5.8075 2.42857 7.51125C2.42857 9.2425 3.70843 10.3862 5.22143 10.3862C5.92571 10.3862 6.55714 10.0462 6.91779 9.695C7.23593 9.385 7.28571 8.97375 7.28571 8.71625L7.28571 7.51125C7.28571 7.34549 7.22175 7.18652 7.10789 7.06931C6.99402 6.9521 6.8396 6.88625 6.67857 6.88625H5.69864C5.53762 6.88625 5.38319 6.9521 5.26933 7.06931C5.15547 7.18652 5.0915 7.34549 5.0915 7.51125C5.0915 7.67701 5.15547 7.83598 5.26933 7.95319C5.38319 8.0704 5.53762 8.13625 5.69864 8.13625H6.07143L6.07143 8.71625C6.07141 8.74599 6.06897 8.77568 6.06414 8.805C5.82773 9.01037 5.53065 9.12715 5.22143 9.13625C4.33379 9.13625 3.64286 8.505 3.64286 7.51125C3.64286 6.48875 4.33136 5.94625 4.92029 5.8825ZM9.71429 5.2625C9.71429 5.09674 9.65032 4.93777 9.53646 4.82056C9.4226 4.70335 9.26817 4.6375 9.10714 4.6375C8.94612 4.6375 8.79169 4.70335 8.67783 4.82056C8.56397 4.93777 8.5 5.09674 8.5 5.2625L8.5 9.7625C8.5 9.92826 8.56397 10.0872 8.67783 10.2044C8.79169 10.3217 8.94612 10.3875 9.10714 10.3875C9.26817 10.3875 9.4226 10.3217 9.53646 10.2044C9.65032 10.0872 9.71429 9.92826 9.71429 9.7625L9.71429 5.2625ZM11.5357 4.6375C11.3747 4.6375 11.2203 4.70335 11.1064 4.82056C10.9925 4.93777 10.9286 5.09674 10.9286 5.2625L10.9286 9.7625C10.9286 9.92826 10.9925 10.0872 11.1064 10.2044C11.2203 10.3217 11.3747 10.3875 11.5357 10.3875C11.6967 10.3875 11.8512 10.3217 11.965 10.2044C12.0789 10.0872 12.1429 9.92826 12.1429 9.7625V8.1325L13.3608 8.125C13.5218 8.12401 13.6759 8.0572 13.789 7.93929C13.9022 7.82138 13.9653 7.66201 13.9643 7.49625C13.9633 7.33049 13.8984 7.17191 13.7839 7.05541C13.6693 6.9389 13.5145 6.87401 13.3535 6.875L12.1429 6.8825V5.88625L13.9643 5.88625C14.1253 5.88625 14.2797 5.8204 14.3936 5.70319C14.5075 5.58598 14.5714 5.42701 14.5714 5.26125C14.5714 5.09549 14.5075 4.93652 14.3936 4.81931C14.2797 4.7021 14.1253 4.63625 13.9643 4.63625L11.5357 4.63625V4.6375ZM3.03571 0C2.23059 0 1.45845 0.32924 0.88914 0.915291C0.319833 1.50134 0 2.2962 0 3.125L0 11.875C0 12.7038 0.319833 13.4987 0.88914 14.0847C1.45845 14.6708 2.23059 15 3.03571 15L13.9643 15C14.7694 15 15.5416 14.6708 16.1109 14.0847C16.6802 13.4987 17 12.7038 17 11.875L17 3.125C17 2.2962 16.6802 1.50134 16.1109 0.915291C15.5416 0.32924 14.7694 0 13.9643 0L3.03571 0ZM1.21429 3.125C1.21429 2.62772 1.40619 2.15081 1.74777 1.79917C2.08935 1.44754 2.55264 1.25 3.03571 1.25L13.9643 1.25C14.4474 1.25 14.9106 1.44754 15.2522 1.79917C15.5938 2.15081 15.7857 2.62772 15.7857 3.125L15.7857 11.875C15.7857 12.3723 15.5938 12.8492 15.2522 13.2008C14.9106 13.5525 14.4474 13.75 13.9643 13.75L3.03571 13.75C2.55264 13.75 2.08935 13.5525 1.74777 13.2008C1.40619 12.8492 1.21429 12.3723 1.21429 11.875L1.21429 3.125Z" fill="#959595"/>
</svg>
