<svg width="35" height="35" viewBox="0 0 35 35" fill="none" xmlns="http://www.w3.org/2000/svg">
<path fill-rule="evenodd" clip-rule="evenodd" d="M1.34771 10.7228C2.2289 8.62275 3.49507 6.7408 5.11201 5.12404C6.71612 3.51583 8.61538 2.23695 10.7114 1.36014C12.8588 0.457656 15.143 0 17.4957 0H17.5727C19.9425 0.0128315 22.2353 0.479042 24.3912 1.40291C26.4659 2.28828 28.3523 3.56715 29.9393 5.17109C31.5391 6.78358 32.7925 8.66125 33.6608 10.7485C34.5591 12.9127 35.0126 15.2139 34.9997 17.5834C34.9869 20.2951 34.3453 22.9683 33.1261 25.3935V31.3302C33.1261 31.805 32.9379 32.2626 32.6 32.6005C32.2621 32.9384 31.8044 33.1266 31.3295 33.1266H25.3879C22.9625 34.3456 20.289 34.9872 17.577 35H17.4957C15.1559 35 12.8844 34.5466 10.7499 33.6612C8.66671 32.7973 6.77173 31.5312 5.1719 29.9401C3.55924 28.3405 2.28878 26.4756 1.40332 24.3926C0.479351 22.237 0.013092 19.9444 0.000259399 17.5749C-0.0125732 15.1967 0.449409 12.8871 1.36054 10.7143L1.34771 10.7228ZM7.25082 27.8358C9.9885 30.5475 13.6245 32.0402 17.4914 32.0402H17.5599C19.9169 32.0274 22.2567 31.4414 24.3228 30.3422L24.6522 30.1668H30.1532V24.6664L30.3286 24.337C31.4322 22.2712 32.0182 19.9316 32.0268 17.5749C32.0439 13.6784 30.5553 10.0214 27.8219 7.26689C25.0928 4.5124 21.4482 2.98973 17.5513 2.97263H17.4829C15.528 2.97263 13.633 3.35329 11.8493 4.1018C10.1083 4.83319 8.54266 5.88537 7.19949 7.2284C5.8606 8.56715 4.80403 10.1369 4.07255 11.8777C3.31541 13.6826 2.9347 15.5988 2.94326 17.5749C2.96465 21.4671 4.49604 25.1112 7.24655 27.84L7.25082 27.8358Z" fill="white"/>
<path fill-rule="evenodd" clip-rule="evenodd" d="M6.66895 23C7.21773 24.1589 7.957 25.206 8.87165 26.1206C9.89828 27.1498 11.1138 27.9683 12.4553 28.5295C13.8296 29.1071 15.2915 29.4 16.7972 29.4H16.8465C18.3632 29.3918 19.8306 29.0934 21.2104 28.5021C22.5381 27.9355 23.7454 27.117 24.7611 26.0905C25.6611 25.1834 26.3897 24.1452 26.9303 23H24.7717C24.3927 23.6282 23.9359 24.2152 23.406 24.7492C21.6593 26.512 19.3268 27.4865 16.8328 27.4975H16.789C15.5379 27.4975 14.3251 27.2539 13.1835 26.7748C12.0693 26.3067 11.0673 25.6333 10.2076 24.7738C9.67112 24.2373 9.20544 23.6429 8.81732 23H6.66895Z" fill="white"/>
</svg>
