<svg width="897" height="896" viewBox="0 0 897 896" fill="none" xmlns="http://www.w3.org/2000/svg">
<path d="M400.006 448C400.006 460.73 405.063 472.939 414.065 481.941C423.066 490.943 435.275 496 448.006 496C460.736 496 472.945 490.943 481.947 481.941C490.949 472.939 496.006 460.73 496.006 448C496.006 435.27 490.949 423.061 481.947 414.059C472.945 405.057 460.736 400 448.006 400C435.275 400 423.066 405.057 414.065 414.059C405.063 423.061 400.006 435.27 400.006 448V448ZM600.006 448C600.006 460.73 605.063 472.939 614.065 481.941C623.066 490.943 635.275 496 648.006 496C660.736 496 672.945 490.943 681.947 481.941C690.949 472.939 696.006 460.73 696.006 448C696.006 435.27 690.949 423.061 681.947 414.059C672.945 405.057 660.736 400 648.006 400C635.275 400 623.066 405.057 614.065 414.059C605.063 423.061 600.006 435.27 600.006 448ZM200.006 448C200.006 460.73 205.063 472.939 214.065 481.941C223.066 490.943 235.275 496 248.006 496C260.736 496 272.945 490.943 281.947 481.941C290.949 472.939 296.006 460.73 296.006 448C296.006 435.27 290.949 423.061 281.947 414.059C272.945 405.057 260.736 400 248.006 400C235.275 400 223.066 405.057 214.065 414.059C205.063 423.061 200.006 435.27 200.006 448V448ZM861.206 274.4C838.606 220.7 806.206 172.5 764.906 131.1C723.895 89.9397 675.209 57.2222 621.606 34.8C566.606 11.7 508.206 0 448.006 0H446.006C385.406 0.3 326.706 12.3 271.506 35.9C218.361 58.5521 170.132 91.3277 129.506 132.4C88.6057 173.7 56.5057 221.7 34.3057 275.2C11.3057 330.6 -0.294327 389.5 0.00567327 450.1C0.344998 519.547 16.7749 587.971 48.0057 650V802C48.0057 814.2 52.8521 825.9 61.4788 834.527C70.1054 843.154 81.8057 848 94.0057 848H246.106C308.135 879.231 376.559 895.661 446.006 896H448.106C508.006 896 566.106 884.4 620.806 861.7C674.138 839.545 722.642 807.209 763.606 766.5C804.906 725.6 837.406 677.8 860.106 624.5C883.706 569.3 895.706 510.6 896.006 450C896.306 389.1 884.506 330 861.206 274.4V274.4ZM710.106 712.4C640.006 781.8 547.006 820 448.006 820H446.306C386.006 819.7 326.106 804.7 273.206 776.5L264.806 772H124.006V631.2L119.506 622.8C91.3057 569.9 76.3057 510 76.0057 449.7C75.6057 350 113.706 256.4 183.606 185.9C253.406 115.4 346.706 76.4 446.406 76H448.106C498.106 76 546.606 85.7 592.306 104.9C636.906 123.6 676.906 150.5 711.306 184.9C745.606 219.2 772.606 259.3 791.306 303.9C810.706 350.1 820.406 399.1 820.206 449.7C819.606 549.3 780.506 642.6 710.106 712.4V712.4Z" fill="black"/>
</svg>
