<?xml version="1.0" encoding="UTF-8"?>
<!DOCTYPE svg PUBLIC "-//W3C//DTD SVG 1.1//EN" "http://www.w3.org/Graphics/SVG/1.1/DTD/svg11.dtd">
<!-- Creator: CorelDRAW 2017 -->
<svg xmlns="http://www.w3.org/2000/svg" xml:space="preserve" width="210mm" height="297mm" version="1.1" style="shape-rendering:geometricPrecision; text-rendering:geometricPrecision; image-rendering:optimizeQuality; fill-rule:evenodd; clip-rule:evenodd"
viewBox="0 0 21000 29700"
 xmlns:xlink="http://www.w3.org/1999/xlink">
 <defs>
  <style type="text/css">
   <![CDATA[
    .fil1 {fill:#FEFEFE}
    .fil0 {fill:black}
   ]]>
  </style>
 </defs>
 <g id="Layer_x0020_1">
  <metadata id="CorelCorpID_0Corel-Layer"/>
  <path class="fil0" d="M14608 13596c-206,-491 -502,-931 -880,-1309 -375,-376 -819,-675 -1309,-880 -502,-211 -1036,-318 -1586,-318l-18 0c-554,3 -1090,112 -1594,328 -485,207 -926,506 -1297,881 -374,377 -667,816 -870,1304 -210,506 -316,1044 -313,1598 3,634 153,1259 438,1826l0 1388c0,111 44,218 123,297 79,79 186,123 297,123l1389 0c567,285 1192,435 1826,438l19 0c547,0 1078,-106 1577,-313 487,-202 930,-498 1304,-870 377,-374 674,-810 881,-1297 216,-504 325,-1040 328,-1594 3,-556 -105,-1096 -318,-1604l0 0zm-1380 4001c-640,634 -1490,983 -2394,983l-16 0c-551,-3 -1098,-140 -1581,-397l-77 -41 -1286 0 0 -1286 -41 -77c-258,-483 -395,-1030 -397,-1581 -4,-911 344,-1766 983,-2410 638,-644 1490,-1000 2401,-1004l16 0c457,0 900,89 1317,264 407,171 773,417 1087,731 313,313 560,680 731,1087 177,422 266,870 264,1332 -5,910 -363,1762 -1006,2400l0 0z"/>
  <g id="_1837699074560">
   <path class="fil1" d="M11829 22019l-1319 0c-191,0 -374,-76 -509,-211 -135,-135 -211,-318 -211,-509l0 -1318c-285,-590 -435,-1238 -438,-1894 -3,-590 110,-1169 336,-1714 218,-525 534,-997 933,-1400 398,-402 872,-724 1393,-946 543,-232 1121,-352 1712,-352l18 0c587,0 1161,114 1702,341 525,220 1003,541 1405,945 403,405 723,878 944,1405 230,547 344,1129 341,1722 -3,590 -120,1167 -352,1710 -223,523 -543,992 -946,1392 -402,399 -878,717 -1401,934 -538,224 -1110,336 -1693,336l-19 0c-657,0 -1305,-153 -1896,-438zm-745 -1294l986 0c52,0 96,11 142,36l77 41c441,236 940,362 1440,362l16 0c823,0 1598,-316 2183,-896 588,-583 912,-1360 917,-2188 2,-419 -78,-828 -241,-1214 -156,-372 -381,-706 -666,-991 -285,-285 -619,-510 -991,-666 -382,-160 -787,-241 -1201,-241l-16 0c-829,0 -1605,327 -2187,915 -584,589 -900,1368 -896,2197 2,500 126,1000 362,1441l41 77c24,46 36,90 36,142l0 986z"/>
  </g>
  <path class="fil0" d="M17517 16479c-206,-491 -502,-931 -880,-1309 -375,-376 -819,-675 -1309,-880 -502,-211 -1036,-318 -1586,-318l-18 0c-554,3 -1090,112 -1594,328 -485,207 -926,506 -1297,881 -374,377 -667,816 -870,1304 -210,506 -316,1044 -313,1598 3,634 153,1259 438,1826l0 1388c0,111 44,218 123,297 79,79 186,123 297,123l1389 0c567,285 1192,435 1826,438l19 0c547,0 1078,-106 1577,-313 487,-202 930,-498 1304,-870 377,-374 674,-810 881,-1297 216,-504 325,-1040 328,-1594 3,-556 -105,-1096 -318,-1604l0 0zm-1380 4001c-640,634 -1490,983 -2394,983l-16 0c-551,-3 -1098,-140 -1581,-397l-77 -41 -1286 0 0 -1286 -41 -77c-258,-483 -395,-1030 -397,-1581 -4,-911 344,-1766 983,-2410 638,-644 1490,-1000 2401,-1004l16 0c457,0 900,89 1317,264 407,171 773,417 1087,731 313,313 560,680 731,1087 177,422 266,870 264,1332 -5,910 -363,1762 -1006,2400l0 0z"/>
 </g>
</svg>
